<svg width="26" height="20" viewBox="0 0 26 20" fill="none" xmlns="http://www.w3.org/2000/svg">
<path d="M16.5455 0C19.053 0 21.4578 1.05357 23.2308 2.92893C25.0039 4.8043 26 7.34784 26 10C26 12.6522 25.0039 15.1957 23.2308 17.0711C21.4578 18.9464 19.053 20 16.5455 20C14.038 20 11.6332 18.9464 9.86008 17.0711C8.08701 15.1957 7.09091 12.6522 7.09091 10C7.09091 7.34784 8.08701 4.8043 9.86008 2.92893C11.6332 1.05357 14.038 0 16.5455 0ZM16.5455 17.5C18.4261 17.5 20.2297 16.7098 21.5595 15.3033C22.8893 13.8968 23.6364 11.9891 23.6364 10C23.6364 8.01088 22.8893 6.10322 21.5595 4.6967C20.2297 3.29018 18.4261 2.5 16.5455 2.5C14.6648 2.5 12.8612 3.29018 11.5314 4.6967C10.2016 6.10322 9.45455 8.01088 9.45455 10C9.45455 11.9891 10.2016 13.8968 11.5314 15.3033C12.8612 16.7098 14.6648 17.5 16.5455 17.5ZM2.36364 10C2.36364 13.2625 4.33727 16.0375 7.09091 17.0625V19.675C3.01364 18.5625 0 14.6625 0 10C0 5.3375 3.01364 1.4375 7.09091 0.325V2.9375C4.33727 3.9625 2.36364 6.7375 2.36364 10Z" fill="#F1FF50"/>
</svg>
